<?xml version="1.0" encoding="UTF-8"?>
<!DOCTYPE svg PUBLIC "-//W3C//DTD SVG 1.1//EN" "http://www.w3.org/Graphics/SVG/1.1/DTD/svg11.dtd">
<svg xmlns="http://www.w3.org/2000/svg" version="1.1" width="48px" height="48px" style="shape-rendering:geometricPrecision; text-rendering:geometricPrecision; image-rendering:optimizeQuality; fill-rule:evenodd; clip-rule:evenodd" xmlns:xlink="http://www.w3.org/1999/xlink">
<g><path style="opacity:0.845" fill="#fefffe" d="M -0.5,17.5 C -0.5,17.1667 -0.5,16.8333 -0.5,16.5C 2.05449,15.612 4.72116,15.2786 7.5,15.5C 7.86766,10.3874 5.53432,7.55405 0.5,7C 8.47327,3.78159 12.1399,6.61492 11.5,15.5C 12.8333,15.5 14.1667,15.5 15.5,15.5C 15.5,16.5 15.5,17.5 15.5,18.5C 10.0735,18.7825 4.74012,18.4491 -0.5,17.5 Z"/></g>
<g><path style="opacity:0.81" fill="#fefffe" d="M 12.5,9.5 C 22.8387,9.33351 33.172,9.50017 43.5,10C 44,10.5 44.5,11 45,11.5C 45.0257,18.3443 43.859,25.011 41.5,31.5C 39.036,34.1592 36.2026,34.8258 33,33.5C 32.5172,32.552 32.3505,31.552 32.5,30.5C 35.8078,31.0262 37.9745,29.6928 39,26.5C 39.7276,22.4643 40.561,18.4643 41.5,14.5C 41.2907,13.914 40.9574,13.414 40.5,13C 31.1726,12.5002 21.8393,12.3335 12.5,12.5C 12.5,11.5 12.5,10.5 12.5,9.5 Z"/></g>
<g><path style="opacity:0.794" fill="#fefffe" d="M 4.5,22.5 C 7.5,22.5 10.5,22.5 13.5,22.5C 13.1459,25.9612 14.4792,28.4612 17.5,30C 21.8206,30.499 26.1539,30.6657 30.5,30.5C 30.8453,33.488 29.512,34.8213 26.5,34.5C 22.183,33.8683 17.8497,33.3683 13.5,33C 11.3382,31.3546 10.0049,29.1879 9.5,26.5C 7.37592,25.8506 5.37592,25.0173 3.5,24C 4.05596,23.6174 4.38929,23.1174 4.5,22.5 Z"/></g>
<g><path style="opacity:0.836" fill="#fefffe" d="M 1.5,28.5 C 3.5,28.5 5.5,28.5 7.5,28.5C 7.5,29.5 7.5,30.5 7.5,31.5C 5.4727,31.6621 3.4727,31.4955 1.5,31C 0.401911,30.2303 0.401911,29.397 1.5,28.5 Z"/></g>
<g><path style="opacity:0.765" fill="#fefffe" d="M 16.5,35.5 C 18.5,35.5 20.5,35.5 22.5,35.5C 22.5,37.5 22.5,39.5 22.5,41.5C 20.5,41.5 18.5,41.5 16.5,41.5C 16.5,39.5 16.5,37.5 16.5,35.5 Z"/></g>
<g><path style="opacity:0.765" fill="#fefffe" d="M 30.5,35.5 C 32.5,35.5 34.5,35.5 36.5,35.5C 36.5,37.5 36.5,39.5 36.5,41.5C 34.5,41.5 32.5,41.5 30.5,41.5C 30.5,39.5 30.5,37.5 30.5,35.5 Z"/></g>
</svg>
