<?xml version="1.0" encoding="UTF-8"?>
<!DOCTYPE svg PUBLIC "-//W3C//DTD SVG 1.1//EN" "http://www.w3.org/Graphics/SVG/1.1/DTD/svg11.dtd">
<svg xmlns="http://www.w3.org/2000/svg" version="1.1" width="48px" height="48px" style="shape-rendering:geometricPrecision; text-rendering:geometricPrecision; image-rendering:optimizeQuality; fill-rule:evenodd; clip-rule:evenodd" xmlns:xlink="http://www.w3.org/1999/xlink">
<g><path style="opacity:0.784" fill="#fefffe" d="M 21.5,3.5 C 28.9632,6.16485 35.4632,10.4982 41,16.5C 41.6667,24.8333 41.6667,33.1667 41,41.5C 38.2809,42.4438 35.4475,42.7771 32.5,42.5C 32.5,41.5 32.5,40.5 32.5,39.5C 34.4672,39.7394 36.3005,39.4061 38,38.5C 38.8773,31.7506 38.544,25.0839 37,18.5C 33.1667,15.3333 29.3333,12.1667 25.5,9C 22.5934,8.14551 20.2601,8.97884 18.5,11.5C 16.7172,10.6518 16.2172,9.31852 17,7.5C 18.6667,6.26683 20.1667,4.9335 21.5,3.5 Z"/></g>
<g><path style="opacity:0.878" fill="#fefffe" d="M 11.5,11.5 C 12.5,11.5 13.5,11.5 14.5,11.5C 14.762,12.9778 14.4287,14.3112 13.5,15.5C 11.0408,16.791 9.54082,18.791 9,21.5C 8.33333,27.1667 8.33333,32.8333 9,38.5C 14.7412,39.4749 20.5746,39.8082 26.5,39.5C 26.5,35.5 26.5,31.5 26.5,27.5C 24.1667,27.5 21.8333,27.5 19.5,27.5C 19.5,30.8333 19.5,34.1667 19.5,37.5C 18.5,37.5 17.5,37.5 16.5,37.5C 16.5,33.1667 16.5,28.8333 16.5,24.5C 21.1667,24.5 25.8333,24.5 30.5,24.5C 30.5,30.5 30.5,36.5 30.5,42.5C 22.2476,42.8158 14.081,42.4825 6,41.5C 5.33333,33.1667 5.33333,24.8333 6,16.5C 7.72969,14.5981 9.56303,12.9314 11.5,11.5 Z"/></g>
</svg>
