<?xml version="1.0" encoding="UTF-8"?>
<!DOCTYPE svg PUBLIC "-//W3C//DTD SVG 1.1//EN" "http://www.w3.org/Graphics/SVG/1.1/DTD/svg11.dtd">
<svg xmlns="http://www.w3.org/2000/svg" version="1.1" width="48px" height="48px" style="shape-rendering:geometricPrecision; text-rendering:geometricPrecision; image-rendering:optimizeQuality; fill-rule:evenodd; clip-rule:evenodd" xmlns:xlink="http://www.w3.org/1999/xlink">
<g><path style="opacity:0.7" fill="#fefffe" d="M 12.5,1.5 C 24.3244,-0.176399 29.1577,4.8236 27,16.5C 23.3449,21.2745 18.5116,22.7745 12.5,21C 8.09516,18.4224 6.42849,14.589 7.5,9.5C 8.67504,9.28099 9.67504,9.61432 10.5,10.5C 12.8024,18.0153 16.9691,19.3486 23,14.5C 24.6229,9.30356 22.7895,6.30356 17.5,5.5C 15.1817,5.99712 12.8484,6.33045 10.5,6.5C 10.3915,4.4862 11.0582,2.81953 12.5,1.5 Z"/></g>
<g><path style="opacity:0.68" fill="#fefffe" d="M 30.5,23.5 C 41.341,21.3559 46.6743,25.6892 46.5,36.5C 45.1779,36.67 44.0113,36.3366 43,35.5C 42.9759,30.4228 40.4759,27.7562 35.5,27.5C 33.476,28.0212 31.476,28.1878 29.5,28C 28.4186,26.2894 28.752,24.7894 30.5,23.5 Z"/></g>
<g><path style="opacity:0.803" fill="#fefffe" d="M 3.5,25.5 C 10.5,25.5 17.5,25.5 24.5,25.5C 24.5,26.5 24.5,27.5 24.5,28.5C 18.8236,28.3339 13.1569,28.5006 7.5,29C 4.87651,31.5587 5.20984,33.8921 8.5,36C 12.4398,37.1564 16.4398,37.9897 20.5,38.5C 20.5,39.5 20.5,40.5 20.5,41.5C 13.1903,42.7852 7.02362,40.7852 2,35.5C 1.03704,31.8513 1.53704,28.518 3.5,25.5 Z"/></g>
<g><path style="opacity:0.694" fill="#fefffe" d="M 33.5,29.5 C 34.8333,29.5 36.1667,29.5 37.5,29.5C 37.5,30.5 37.5,31.5 37.5,32.5C 38.5,32.5 39.5,32.5 40.5,32.5C 40.5,33.8333 40.5,35.1667 40.5,36.5C 39.5,36.5 38.5,36.5 37.5,36.5C 37.5,37.5 37.5,38.5 37.5,39.5C 36.1667,39.5 34.8333,39.5 33.5,39.5C 33.5,38.5 33.5,37.5 33.5,36.5C 32.5,36.5 31.5,36.5 30.5,36.5C 30.5,35.1667 30.5,33.8333 30.5,32.5C 31.5,32.5 32.5,32.5 33.5,32.5C 33.5,31.5 33.5,30.5 33.5,29.5 Z"/></g>
<g><path style="opacity:0.69" fill="#fefffe" d="M 24.5,30.5 C 25.8333,30.5 27.1667,30.5 28.5,30.5C 27.1171,36.7658 29.4504,40.4325 35.5,41.5C 38.4373,40.5302 41.4373,39.8635 44.5,39.5C 44.5479,42.2919 43.2146,44.1253 40.5,45C 28.656,47.322 23.3227,42.4887 24.5,30.5 Z"/></g>
</svg>
