<?xml version="1.0" encoding="UTF-8"?>
<!DOCTYPE svg PUBLIC "-//W3C//DTD SVG 1.1//EN" "http://www.w3.org/Graphics/SVG/1.1/DTD/svg11.dtd">
<svg xmlns="http://www.w3.org/2000/svg" version="1.1" width="48px" height="48px" style="shape-rendering:geometricPrecision; text-rendering:geometricPrecision; image-rendering:optimizeQuality; fill-rule:evenodd; clip-rule:evenodd" xmlns:xlink="http://www.w3.org/1999/xlink">
<g><path style="opacity:0.875" fill="#fefffe" d="M 19.5,3.5 C 29.1667,1.83333 33.1667,5.83333 31.5,15.5C 34.1194,15.2317 36.6194,15.565 39,16.5C 39.6667,25.1667 39.6667,33.8333 39,42.5C 35.6064,43.4558 32.1064,43.7892 28.5,43.5C 28.5,42.5 28.5,41.5 28.5,40.5C 31.3646,40.9452 33.8646,40.2785 36,38.5C 36.6667,32.5 36.6667,26.5 36,20.5C 35.5,20 35,19.5 34.5,19C 30.1794,18.501 25.8461,18.3343 21.5,18.5C 21.5,17.5 21.5,16.5 21.5,15.5C 23.8333,15.5 26.1667,15.5 28.5,15.5C 29.325,9.00267 26.6583,6.50267 20.5,8C 18.8627,11.2846 18.1961,14.7846 18.5,18.5C 15.6354,18.0548 13.1354,18.7215 11,20.5C 10.3333,26.5 10.3333,32.5 11,38.5C 11.5,39 12,39.5 12.5,40C 16.8206,40.499 21.1539,40.6657 25.5,40.5C 25.5,41.5 25.5,42.5 25.5,43.5C 19.5746,43.8082 13.7412,43.4749 8,42.5C 7.33333,33.8333 7.33333,25.1667 8,16.5C 10.3806,15.565 12.8806,15.2317 15.5,15.5C 15.3359,12.8127 15.5026,10.146 16,7.5C 16.6897,5.64977 17.8564,4.31643 19.5,3.5 Z"/></g>
<g><path style="opacity:0.727" fill="#fefffe" d="M 20.5,26.5 C 22.5,26.5 24.5,26.5 26.5,26.5C 26.2756,30.1788 25.9422,33.8455 25.5,37.5C 24.1667,37.5 22.8333,37.5 21.5,37.5C 21.0578,33.8455 20.7244,30.1788 20.5,26.5 Z"/></g>
</svg>
