<?xml version="1.0" encoding="UTF-8"?>
<!DOCTYPE svg PUBLIC "-//W3C//DTD SVG 1.1//EN" "http://www.w3.org/Graphics/SVG/1.1/DTD/svg11.dtd">
<svg xmlns="http://www.w3.org/2000/svg" version="1.1" width="48px" height="48px" style="shape-rendering:geometricPrecision; text-rendering:geometricPrecision; image-rendering:optimizeQuality; fill-rule:evenodd; clip-rule:evenodd" xmlns:xlink="http://www.w3.org/1999/xlink">
<g><path style="opacity:0.715" fill="#fefffe" d="M 22.5,2.5 C 40.0364,5.21929 46.5364,15.2193 42,32.5C 39.6578,37.5683 35.8245,40.5683 30.5,41.5C 31.5642,37.901 33.7309,34.901 37,32.5C 42.771,18.449 38.271,9.78237 23.5,6.5C 20.0538,7.36155 16.7205,8.19488 13.5,9C 12.269,7.81732 12.269,6.65066 13.5,5.5C 16.5149,4.18214 19.5149,3.18214 22.5,2.5 Z"/></g>
<g><path style="opacity:0.699" fill="#fefffe" d="M 19.5,17.5 C 19.175,14.4758 20.5083,12.8091 23.5,12.5C 26.8838,14.9193 30.3838,17.2526 34,19.5C 34.6667,20.8333 34.6667,22.1667 34,23.5C 32.2421,26.5393 30.7421,29.7059 29.5,33C 26.1502,32.5008 22.8169,32.6675 19.5,33.5C 17.9707,33.4712 16.804,32.8045 16,31.5C 15.6667,29.5 15.3333,27.5 15,25.5C 11.616,22.5123 11.7827,19.6789 15.5,17C 16.9285,16.4209 18.2618,16.5876 19.5,17.5 Z M 19.5,17.5 C 20.9305,17.5792 22.2638,17.2458 23.5,16.5C 24.68,19.0978 26.68,20.7645 29.5,21.5C 27.9293,23.8822 27.096,26.5488 27,29.5C 24.6667,26.8333 22.3333,26.8333 20,29.5C 19.904,26.5488 19.0707,23.8822 17.5,21.5C 18.6302,20.3777 19.2969,19.0443 19.5,17.5 Z"/></g>
<g><path style="opacity:0.72" fill="#fefffe" d="M 5.5,13.5 C 7.10326,13.3118 8.43659,13.8118 9.5,15C 6.89128,20.9546 6.89128,26.9546 9.5,33C 6,39.5 7.5,41 14,37.5C 18.07,38.9469 22.2367,39.9469 26.5,40.5C 26.5,41.5 26.5,42.5 26.5,43.5C 22.0887,43.979 17.922,43.3124 14,41.5C 4.5,45.3333 1.66667,42.5 5.5,33C 2.85708,26.5004 2.85708,20.0004 5.5,13.5 Z"/></g>
</svg>
