<?xml version="1.0" encoding="UTF-8"?>
<!DOCTYPE svg PUBLIC "-//W3C//DTD SVG 1.1//EN" "http://www.w3.org/Graphics/SVG/1.1/DTD/svg11.dtd">
<svg xmlns="http://www.w3.org/2000/svg" version="1.1" width="48px" height="48px" style="shape-rendering:geometricPrecision; text-rendering:geometricPrecision; image-rendering:optimizeQuality; fill-rule:evenodd; clip-rule:evenodd" xmlns:xlink="http://www.w3.org/1999/xlink">
<g><path style="opacity:0.706" fill="#fefffe" d="M 17.5,3.5 C 21.5,3.5 25.5,3.5 29.5,3.5C 29.372,5.65472 29.872,7.65472 31,9.5C 33.7917,9.66101 36.625,9.99435 39.5,10.5C 41.2225,12.7776 42.5559,15.2776 43.5,18C 42.3427,19.9862 41.0093,21.8196 39.5,23.5C 40.5512,25.5294 41.8845,27.3627 43.5,29C 42.3476,32.3065 40.681,35.3065 38.5,38C 36.3313,38.4294 34.3313,37.9294 32.5,36.5C 30.4557,37.9796 29.1224,37.4796 28.5,35C 30.3588,32.4528 32.6921,31.9528 35.5,33.5C 39.2097,31.759 39.3764,29.759 36,27.5C 35.8333,26.3333 35.6667,25.1667 35.5,24C 35.9917,20.9086 36.825,18.0752 38,15.5C 37.3333,14.8333 36.6667,14.1667 36,13.5C 30.4954,15.6852 26.9954,13.8518 25.5,8C 22.854,7.50258 20.1873,7.33591 17.5,7.5C 17.5,6.16667 17.5,4.83333 17.5,3.5 Z"/></g>
<g><path style="opacity:0.707" fill="#fefffe" d="M 8.5,8.5 C 10.677,8.58613 12.677,9.25279 14.5,10.5C 16.5443,9.02044 17.8776,9.52044 18.5,12C 16.6412,14.5472 14.3079,15.0472 11.5,13.5C 7.79031,15.241 7.62364,17.241 11,19.5C 12.2272,23.5913 11.3939,27.0913 8.5,30C 9.12576,30.7504 9.62576,31.5838 10,32.5C 12.6987,32.2986 15.532,32.6319 18.5,33.5C 19.782,35.1792 20.782,37.0126 21.5,39C 24.146,39.4974 26.8127,39.6641 29.5,39.5C 29.5,40.8333 29.5,42.1667 29.5,43.5C 25.5,43.5 21.5,43.5 17.5,43.5C 18.2104,40.1148 17.0437,37.7814 14,36.5C 12.2108,37.4091 10.3774,37.5758 8.5,37C 3.10469,32.5015 2.77136,28.0015 7.5,23.5C 6.44882,21.4706 5.11549,19.6373 3.5,18C 4.78973,14.5851 6.4564,11.4185 8.5,8.5 Z"/></g>
<g><path style="opacity:0.742" fill="#fefffe" d="M 19.5,15.5 C 30.8598,14.71 34.1931,19.5434 29.5,30C 18.9641,33.997 14.4641,30.497 16,19.5C 16.6897,17.6498 17.8564,16.3164 19.5,15.5 Z M 20.5,19.5 C 27.1584,18.3445 29.1584,20.8445 26.5,27C 19.7496,28.4689 17.7496,25.9689 20.5,19.5 Z"/></g>
</svg>
